<svg width="16" height="16" viewBox="0 0 16 16" fill="none" xmlns="http://www.w3.org/2000/svg">
<path d="M8.59556 8.78889H0.1V7.21111H8.59556H8.83632L8.6664 7.04054L6.44351 4.80903L7.55556 3.69698L11.8586 8L7.55556 12.303L6.44351 11.191L8.6664 8.95946L8.83632 8.78889H8.59556ZM1.77778 1.67778H1.67778V1.77778V5.23333H0.1V1.77778C0.1 0.854903 0.846665 0.1 1.77778 0.1H14.2222C15.1448 0.1 15.9 0.855228 15.9 1.77778V14.2222C15.9 15.1448 15.1448 15.9 14.2222 15.9H1.77778C0.846665 15.9 0.1 15.1451 0.1 14.2222V10.7667H1.67778V14.2222V14.3222H1.77778H14.2222H14.3222V14.2222V1.77778V1.67778H14.2222H1.77778Z" fill="black" stroke="white" stroke-width="0.2"/>
</svg>
