<svg width="16" height="19" viewBox="0 0 16 19" fill="none" xmlns="http://www.w3.org/2000/svg">
<path d="M15 17.166V15.416C15 14.4877 14.6313 13.5975 13.9749 12.9411C13.3185 12.2847 12.4283 11.916 11.5 11.916H4.5C3.57174 11.916 2.6815 12.2847 2.02513 12.9411C1.36875 13.5975 1 14.4877 1 15.416V17.166" stroke="#C4C4C4" stroke-width="1.7" stroke-linecap="round" stroke-linejoin="round"/>
<path d="M8 8.41599C9.933 8.41599 11.5 6.84898 11.5 4.91599C11.5 2.98299 9.933 1.41599 8 1.41599C6.067 1.41599 4.5 2.98299 4.5 4.91599C4.5 6.84898 6.067 8.41599 8 8.41599Z" stroke="#C4C4C4" stroke-width="1.7" stroke-linecap="round" stroke-linejoin="round"/>
<mask id="path-3-inside-1" fill="white">
<path d="M7.07152 14.5665C7.40678 13.7283 8.59322 13.7283 8.92848 14.5665L9.45144 15.8739C9.71419 16.5308 9.23043 17.2453 8.52297 17.2453H7.47703C6.76957 17.2453 6.28581 16.5308 6.54856 15.8739L7.07152 14.5665Z"/>
</mask>
<path d="M7.35007 15.1979L7.87303 16.5053L11.0299 15.2425L10.5069 13.9351L7.35007 15.1979ZM8.52297 15.5453H7.47703V18.9453H8.52297V15.5453ZM8.12697 16.5053L8.64993 15.1979L5.49311 13.9351L4.97015 15.2425L8.12697 16.5053ZM7.47703 15.5453C7.97226 15.5453 8.31089 16.0455 8.12697 16.5053L4.97015 15.2425C4.26073 17.0161 5.56688 18.9453 7.47703 18.9453V15.5453ZM7.87303 16.5053C7.68911 16.0455 8.02774 15.5453 8.52297 15.5453V18.9453C10.4331 18.9453 11.7393 17.0161 11.0299 15.2425L7.87303 16.5053ZM10.5069 13.9351C9.60169 11.6721 6.39831 11.6721 5.49311 13.9351L8.64993 15.1979C8.41525 15.7846 7.58475 15.7846 7.35007 15.1979L10.5069 13.9351Z" fill="#C4C4C4" mask="url(#path-3-inside-1)"/>
</svg>
