<svg width="16" height="16" viewBox="0 0 16 16" fill="none" xmlns="http://www.w3.org/2000/svg">
<path d="M13.562 8.70175C13.5894 8.47934 13.6077 8.24803 13.6077 8.00782C13.6077 7.76762 13.5894 7.53631 13.5528 7.3139L15.0993 6.13956C15.2366 6.0328 15.2732 5.83708 15.1908 5.68584L13.7267 3.22151C13.6352 3.06138 13.443 3.008 13.2783 3.06138L11.4573 3.7731C11.0729 3.48841 10.6703 3.2571 10.2219 3.07917L9.94737 1.19312C9.91992 1.01519 9.76435 0.890635 9.58134 0.890635H6.65305C6.47004 0.890635 6.32362 1.01519 6.29617 1.19312L6.02164 3.07917C5.57325 3.2571 5.16146 3.4973 4.78627 3.7731L2.96525 3.06138C2.80053 2.9991 2.60836 3.06138 2.51685 3.22151L1.05271 5.68584C0.961204 5.84598 0.997807 6.0328 1.14422 6.13956L2.69072 7.3139C2.65412 7.53631 2.62666 7.77651 2.62666 8.00782C2.62666 8.23913 2.64497 8.47934 2.68157 8.70175L1.13507 9.87608C0.997807 9.98284 0.961204 10.1786 1.04356 10.3298L2.5077 12.7941C2.59921 12.9543 2.79138 13.0076 2.9561 12.9543L4.77712 12.2425C5.16146 12.5272 5.5641 12.7585 6.01249 12.9365L6.28702 14.8225C6.32362 15.0005 6.47004 15.125 6.65305 15.125H9.58134C9.76435 15.125 9.91992 15.0005 9.93822 14.8225L10.2127 12.9365C10.6611 12.7585 11.0729 12.5183 11.4481 12.2425L13.2691 12.9543C13.4339 13.0165 13.626 12.9543 13.7175 12.7941L15.1817 10.3298C15.2732 10.1697 15.2366 9.98284 15.0902 9.87608L13.562 8.70175ZM8.1172 10.6768C6.6073 10.6768 5.37193 9.47574 5.37193 8.00782C5.37193 6.5399 6.6073 5.33888 8.1172 5.33888C9.62709 5.33888 10.8625 6.5399 10.8625 8.00782C10.8625 9.47574 9.62709 10.6768 8.1172 10.6768Z" stroke="black" stroke-width="1.35"/>
</svg>
