<svg width="15" height="12" viewBox="0 0 15 12" fill="none" xmlns="http://www.w3.org/2000/svg">
<path d="M1.00012 6.39349H4.1095" stroke="black" stroke-width="1.35" stroke-linecap="round" stroke-linejoin="round"/>
<path d="M1.00012 2.22449H4.1095" stroke="black" stroke-width="1.35" stroke-linecap="round" stroke-linejoin="round"/>
<path d="M1.00012 10.5625H13.5072" stroke="black" stroke-width="1.35" stroke-linecap="round" stroke-linejoin="round"/>
<path d="M13.2803 3.99567L13.2803 3.9957L13.2863 3.99109C13.6021 3.74545 13.6739 3.31509 13.4946 2.98586L13.4888 2.97517L13.4826 2.9647L12.8994 1.98317C12.6835 1.61281 12.2643 1.53087 11.9592 1.62974L11.9409 1.63567L11.923 1.64268L11.5285 1.79685L11.4719 1.40797L11.4719 1.40797L11.4711 1.40248C11.4073 0.989018 11.0499 0.730737 10.6824 0.730737H9.5124C9.12457 0.730737 8.78819 1.00851 8.7274 1.40248L8.72738 1.40248L8.72658 1.40797L8.66998 1.79685L8.27551 1.64268L8.27552 1.64264L8.26877 1.64008C7.9179 1.50743 7.50182 1.63579 7.29915 1.98304L6.71591 2.9647L6.71583 2.96466L6.71037 2.97422C6.51862 3.30977 6.58876 3.75024 6.9214 3.9981L7.2177 4.2231L6.91454 4.4533L6.91451 4.45327L6.90857 4.45789C6.59275 4.70352 6.52093 5.13388 6.70022 5.46312L6.70604 5.47381L6.71225 5.48427L7.2954 6.46578C7.51127 6.83616 7.93053 6.9181 8.23562 6.81924L8.25393 6.8133L8.27185 6.8063L8.66632 6.65213L8.72292 7.041L8.72566 7.05977L8.72948 7.07835C8.80382 7.43974 9.1188 7.71824 9.5124 7.71824H10.6824C11.0368 7.71824 11.4151 7.46824 11.4695 7.03219L11.5248 6.65213L11.9193 6.8063L11.9193 6.80634L11.9261 6.80889C12.2769 6.94155 12.693 6.81318 12.8957 6.46593L13.4789 5.48427L13.479 5.48432L13.4845 5.47476C13.6758 5.1399 13.6064 4.70055 13.2755 4.4524L12.9789 4.22451L13.2803 3.99567ZM10.0974 4.64089C9.8357 4.64089 9.65051 4.43487 9.65051 4.22449C9.65051 4.0141 9.8357 3.80808 10.0974 3.80808C10.3591 3.80808 10.5443 4.0141 10.5443 4.22449C10.5443 4.43487 10.3591 4.64089 10.0974 4.64089Z" stroke="black" stroke-width="1.3"/>
<circle cx="10.0974" cy="4.22448" r="0.56875" fill="black"/>
</svg>
